<svg width="230" height="180" viewBox="0 0 230 180" fill="none" xmlns="http://www.w3.org/2000/svg">
<g clip-path="url(#clip0)">
<path d="M135.576 176.763C172.638 176.657 204.288 126.181 217.76 101.03C222.181 92.7777 220.314 82.7638 213.675 76.1627L151.07 13.9153C142.23 5.12554 127.938 5.1665 119.148 14.0068L56.9008 76.612C50.2996 83.2511 48.4906 93.2756 52.9586 101.503C66.575 126.576 98.5132 176.869 135.576 176.763Z" fill="white"/>
<path d="M136.17 152.384C164.239 152.304 188.209 114.076 198.412 95.0289C201.76 88.7787 200.346 81.1948 195.318 76.1955L147.905 29.053C141.21 22.3962 130.386 22.4272 123.729 29.1223L76.5863 76.5358C71.587 81.5639 70.2169 89.1558 73.6008 95.3867C83.913 114.375 108.101 152.465 136.17 152.384Z" fill="#9AEF92"/>
<path d="M73.4992 117.871C62.3135 107.8 124.148 46.8072 149.65 50.3492C175.152 53.8911 200.316 87.1071 174.443 105.957C149.65 124.021 84.6849 127.942 73.4992 117.871Z" fill="#FA7822"/>
<path d="M174.318 31.028C165.109 31.028 169.714 59.7173 170.776 60.4257C171.839 61.1341 176.034 65.2141 179.419 69.9889C179.419 69.9889 214.107 74.2237 208.686 64.3218C204.86 57.3354 189.559 57.238 189.559 57.238C189.559 57.238 191.516 51.5623 189.291 48.7374C186.466 45.152 177.603 48.7374 177.603 48.7374C177.603 48.7374 183.527 31.0279 174.318 31.028Z" fill="#5CAD2B"/>
<path d="M173.465 31.3823C165.248 31.3823 169.356 56.5236 170.304 57.1444C171.253 57.7652 176.134 62.2717 179.154 66.4559C179.154 66.4559 209.591 72.0294 204.753 63.3521C201.34 57.2297 187.687 57.1444 187.687 57.1444C187.687 57.1444 189.673 51.5498 187.687 49.0743C185.166 45.9323 177.257 49.0743 177.257 49.0743C177.257 49.0743 181.682 31.3823 173.465 31.3823Z" fill="#6CBD36"/>
<ellipse cx="172.335" cy="37.0493" rx="1.77095" ry="3.5419" fill="#80CD44"/>
<ellipse cx="185.44" cy="51.5714" rx="1.41676" ry="1.77095" fill="#80CD44"/>
<ellipse cx="198.191" cy="63.6135" rx="2.83352" ry="1.77095" fill="#80CD44"/>
<path d="M91.2064 91.5175C91.2064 91.5175 95.2336 96.4016 96.7603 100.085C98.0259 103.138 98.7897 108.302 98.7897 108.302C98.7897 108.302 95.4758 103.991 93.965 101.348C92.4542 98.705 91.2064 91.5175 91.2064 91.5175Z" fill="#F96716"/>
<path d="M165.586 70.2663C165.586 70.2663 169.613 75.1503 171.14 78.8338C172.406 81.8872 173.17 87.0505 173.17 87.0505C173.17 87.0505 169.8 83.0646 168.345 80.0968C166.59 76.5165 165.586 70.2663 165.586 70.2663Z" fill="#F96716"/>
<path d="M128.75 100.727C128.75 100.727 132.778 105.611 134.304 109.294C135.57 112.348 136.334 117.511 136.334 117.511C136.334 117.511 132.964 113.525 131.509 110.557C129.754 106.977 128.75 100.727 128.75 100.727Z" fill="#F96716"/>
<path d="M113.166 92.4675C113.166 92.4675 102.914 74.9476 102.914 74.5934C102.914 74.2392 102.475 74.797 102.205 74.9476C100.779 75.7424 99.1391 77.7891 99.1391 77.7891L113.166 92.4675Z" fill="#F96716"/>
<path d="M156.425 79.3197L136.05 53.0448C136.05 53.0448 136.103 52.7265 134.758 53.5346C123.865 60.0816 156.425 79.3197 156.425 79.3197Z" fill="#F96716"/>
<path d="M151.944 86.7836L168.057 109.993L172.335 107.533L151.944 86.7836Z" fill="#F96716"/>
<path d="M83.7876 104.7C73.9808 95.8704 126.955 47.4033 149.313 50.5086C171.671 53.6139 193.94 84.5109 175.168 94.7823C153.431 110.619 93.5943 113.529 83.7876 104.7Z" fill="#F9C643" fill-opacity="0.17"/>
<ellipse cx="116.727" cy="74.9476" rx="3.5419" ry="3.18771" fill="#FAD168" fill-opacity="0.48"/>
<path d="M122.072 70.1255C118.853 66.8014 134.791 56.7761 140.635 55.5904C146.479 54.4047 150.375 52.9879 151.438 54.7589C152.501 56.5298 149.667 60.8717 143.757 60.8716C137.846 60.8716 125.291 73.4496 122.072 70.1255Z" fill="#FFD362" fill-opacity="0.47"/>
</g>
<defs>
<clipPath id="clip0">
<rect width="230" height="180" fill="white"/>
</clipPath>
</defs>
</svg>
